<?xml version="1.0" encoding="utf-8" standalone="no"?>
<!DOCTYPE svg PUBLIC "-//W3C//DTD SVG 1.1//EN"
  "http://www.w3.org/Graphics/SVG/1.1/DTD/svg11.dtd">
<svg xmlns:xlink="http://www.w3.org/1999/xlink" width="252pt" height="144pt" viewBox="0 0 252 144" xmlns="http://www.w3.org/2000/svg" version="1.1">
 <metadata>
  <rdf:RDF xmlns:dc="http://purl.org/dc/elements/1.1/" xmlns:cc="http://creativecommons.org/ns#" xmlns:rdf="http://www.w3.org/1999/02/22-rdf-syntax-ns#">
   <cc:Work>
    <dc:type rdf:resource="http://purl.org/dc/dcmitype/StillImage"/>
    <dc:date>2024-11-21T12:21:59.234512</dc:date>
    <dc:format>image/svg+xml</dc:format>
    <dc:creator>
     <cc:Agent>
      <dc:title>Matplotlib v3.9.2, https://matplotlib.org/</dc:title>
     </cc:Agent>
    </dc:creator>
   </cc:Work>
  </rdf:RDF>
 </metadata>
 <defs>
  <style type="text/css">*{stroke-linejoin: round; stroke-linecap: butt}</style>
 </defs>
 <g id="figure_1">
  <g id="patch_1">
   <path d="M 0 144 
L 252 144 
L 252 0 
L 0 0 
z
" style="fill: #ffffff"/>
  </g>
  <g id="axes_1">
   <g id="patch_2">
    <path d="M 28.951563 69.75 
L 246.09375 69.75 
L 246.09375 4.5 
L 28.951563 4.5 
z
" style="fill: #ffffff"/>
   </g>
   <g id="patch_3">
    <path d="M 41.144038 16.684455 
L 44.24054 16.684455 
L 44.24054 66.784091 
L 41.144038 66.784091 
z
" clip-path="url(#p6eb4a9cee0)" style="fill: #b2b2b2"/>
   </g>
   <g id="patch_4">
    <path d="M 45.014665 16.684455 
L 48.111167 16.684455 
L 48.111167 20.971304 
L 45.014665 20.971304 
z
" clip-path="url(#p6eb4a9cee0)" style="fill: #b7b7b7"/>
   </g>
   <g id="patch_5">
    <path d="M 48.885293 16.684455 
L 51.981795 16.684455 
L 51.981795 20.519636 
L 48.885293 20.519636 
z
" clip-path="url(#p6eb4a9cee0)" style="fill: #bbbbbb"/>
   </g>
   <g id="patch_6">
    <path d="M 52.75592 16.684455 
L 55.852422 16.684455 
L 55.852422 20.430829 
L 52.75592 20.430829 
z
" clip-path="url(#p6eb4a9cee0)" style="fill: #bfbfbf"/>
   </g>
   <g id="patch_7">
    <path d="M 56.626547 16.684455 
L 59.723049 16.684455 
L 59.723049 20.430829 
L 56.626547 20.430829 
z
" clip-path="url(#p6eb4a9cee0)" style="fill: #c3c3c3"/>
   </g>
   <g id="patch_8">
    <path d="M 60.497174 16.684455 
L 63.593676 16.684455 
L 63.593676 20.273448 
L 60.497174 20.273448 
z
" clip-path="url(#p6eb4a9cee0)" style="fill: #c7c7c7"/>
   </g>
   <g id="patch_9">
    <path d="M 64.367802 16.684455 
L 67.464303 16.684455 
L 67.464303 20.016068 
L 64.367802 20.016068 
z
" clip-path="url(#p6eb4a9cee0)" style="fill: #cbcbcb"/>
   </g>
   <g id="patch_10">
    <path d="M 68.238429 16.684455 
L 71.334931 16.684455 
L 71.334931 17.026992 
L 68.238429 17.026992 
z
" clip-path="url(#p6eb4a9cee0)" style="fill: #cfcfcf"/>
   </g>
   <g id="patch_11">
    <path d="M 72.109056 16.684455 
L 75.205558 16.684455 
L 75.205558 16.948495 
L 72.109056 16.948495 
z
" clip-path="url(#p6eb4a9cee0)" style="fill: #d3d3d3"/>
   </g>
   <g id="patch_12">
    <path d="M 75.979683 16.684455 
L 79.076185 16.684455 
L 79.076185 16.948495 
L 75.979683 16.948495 
z
" clip-path="url(#p6eb4a9cee0)" style="fill: #d7d7d7"/>
   </g>
   <g id="patch_13">
    <path d="M 79.850311 16.684455 
L 82.946812 16.684455 
L 82.946812 16.946702 
L 79.850311 16.946702 
z
" clip-path="url(#p6eb4a9cee0)" style="fill: #dbdbdb"/>
   </g>
   <g id="patch_14">
    <path d="M 83.720938 16.684455 
L 86.81744 16.684455 
L 86.81744 16.684455 
L 83.720938 16.684455 
z
" clip-path="url(#p6eb4a9cee0)" style="fill: #dfdfdf"/>
   </g>
   <g id="patch_15">
    <path d="M 87.591565 16.684455 
L 90.688067 16.684455 
L 90.688067 16.684455 
L 87.591565 16.684455 
z
" clip-path="url(#p6eb4a9cee0)" style="fill: #e3e3e3"/>
   </g>
   <g id="patch_16">
    <path d="M 91.462192 16.684455 
L 94.558694 16.684455 
L 94.558694 16.684455 
L 91.462192 16.684455 
z
" clip-path="url(#p6eb4a9cee0)" style="fill: #e7e7e7"/>
   </g>
   <g id="patch_17">
    <path d="M 95.332819 16.684455 
L 98.429321 16.684455 
L 98.429321 16.684455 
L 95.332819 16.684455 
z
" clip-path="url(#p6eb4a9cee0)" style="fill: #ebebeb"/>
   </g>
   <g id="patch_18">
    <path d="M 99.203447 16.684455 
L 102.299948 16.684455 
L 102.299948 16.684455 
L 99.203447 16.684455 
z
" clip-path="url(#p6eb4a9cee0)" style="fill: #efefef"/>
   </g>
   <g id="patch_19">
    <path d="M 103.074074 16.684455 
L 106.170576 16.684455 
L 106.170576 16.684455 
L 103.074074 16.684455 
z
" clip-path="url(#p6eb4a9cee0)" style="fill: #f3f3f3"/>
   </g>
   <g id="patch_20">
    <path d="M 106.944701 16.684455 
L 110.041203 16.684455 
L 110.041203 16.684455 
L 106.944701 16.684455 
z
" clip-path="url(#p6eb4a9cee0)" style="fill: #f7f7f7"/>
   </g>
   <g id="patch_21">
    <path d="M 110.815328 16.684455 
L 113.91183 16.684455 
L 113.91183 16.684455 
L 110.815328 16.684455 
z
" clip-path="url(#p6eb4a9cee0)" style="fill: #fbfbfb"/>
   </g>
   <g id="patch_22">
    <path d="M 114.685956 16.684455 
L 117.782457 16.684455 
L 117.782457 16.684455 
L 114.685956 16.684455 
z
" clip-path="url(#p6eb4a9cee0)" style="fill: #ffffff"/>
   </g>
   <g id="patch_23">
    <path d="M 157.262855 16.684455 
L 160.359357 16.684455 
L 160.359357 14.779422 
L 157.262855 14.779422 
z
" clip-path="url(#p6eb4a9cee0)" style="fill: #ffffff"/>
   </g>
   <g id="patch_24">
    <path d="M 161.133482 16.684455 
L 164.229984 16.684455 
L 164.229984 14.777023 
L 161.133482 14.777023 
z
" clip-path="url(#p6eb4a9cee0)" style="fill: #fbfbfb"/>
   </g>
   <g id="patch_25">
    <path d="M 165.00411 16.684455 
L 168.100611 16.684455 
L 168.100611 13.975782 
L 165.00411 13.975782 
z
" clip-path="url(#p6eb4a9cee0)" style="fill: #f7f7f7"/>
   </g>
   <g id="patch_26">
    <path d="M 168.874737 16.684455 
L 171.971239 16.684455 
L 171.971239 13.091447 
L 168.874737 13.091447 
z
" clip-path="url(#p6eb4a9cee0)" style="fill: #f3f3f3"/>
   </g>
   <g id="patch_27">
    <path d="M 172.745364 16.684455 
L 175.841866 16.684455 
L 175.841866 13.050517 
L 172.745364 13.050517 
z
" clip-path="url(#p6eb4a9cee0)" style="fill: #efefef"/>
   </g>
   <g id="patch_28">
    <path d="M 176.615991 16.684455 
L 179.712493 16.684455 
L 179.712493 12.440164 
L 176.615991 12.440164 
z
" clip-path="url(#p6eb4a9cee0)" style="fill: #ebebeb"/>
   </g>
   <g id="patch_29">
    <path d="M 180.486618 16.684455 
L 183.58312 16.684455 
L 183.58312 12.440164 
L 180.486618 12.440164 
z
" clip-path="url(#p6eb4a9cee0)" style="fill: #1f77b4"/>
   </g>
   <g id="patch_30">
    <path d="M 184.357246 16.684455 
L 187.453747 16.684455 
L 187.453747 11.736711 
L 184.357246 11.736711 
z
" clip-path="url(#p6eb4a9cee0)" style="fill: #e3e3e3"/>
   </g>
   <g id="patch_31">
    <path d="M 188.227873 16.684455 
L 191.324375 16.684455 
L 191.324375 11.665777 
L 188.227873 11.665777 
z
" clip-path="url(#p6eb4a9cee0)" style="fill: #1f77b4"/>
   </g>
   <g id="patch_32">
    <path d="M 192.0985 16.684455 
L 195.195002 16.684455 
L 195.195002 11.665777 
L 192.0985 11.665777 
z
" clip-path="url(#p6eb4a9cee0)" style="fill: #1f77b4"/>
   </g>
   <g id="patch_33">
    <path d="M 195.969127 16.684455 
L 199.065629 16.684455 
L 199.065629 11.665008 
L 195.969127 11.665008 
z
" clip-path="url(#p6eb4a9cee0)" style="fill: #1f77b4"/>
   </g>
   <g id="patch_34">
    <path d="M 199.839755 16.684455 
L 202.936256 16.684455 
L 202.936256 11.665008 
L 199.839755 11.665008 
z
" clip-path="url(#p6eb4a9cee0)" style="fill: #1f77b4"/>
   </g>
   <g id="patch_35">
    <path d="M 203.710382 16.684455 
L 206.806884 16.684455 
L 206.806884 11.665008 
L 203.710382 11.665008 
z
" clip-path="url(#p6eb4a9cee0)" style="fill: #1f77b4"/>
   </g>
   <g id="patch_36">
    <path d="M 207.581009 16.684455 
L 210.677511 16.684455 
L 210.677511 11.665008 
L 207.581009 11.665008 
z
" clip-path="url(#p6eb4a9cee0)" style="fill: #1f77b4"/>
   </g>
   <g id="patch_37">
    <path d="M 211.451636 16.684455 
L 214.548138 16.684455 
L 214.548138 11.665008 
L 211.451636 11.665008 
z
" clip-path="url(#p6eb4a9cee0)" style="fill: #c7c7c7"/>
   </g>
   <g id="patch_38">
    <path d="M 215.322264 16.684455 
L 218.418765 16.684455 
L 218.418765 11.665008 
L 215.322264 11.665008 
z
" clip-path="url(#p6eb4a9cee0)" style="fill: #1f77b4"/>
   </g>
   <g id="patch_39">
    <path d="M 219.192891 16.684455 
L 222.289393 16.684455 
L 222.289393 11.665008 
L 219.192891 11.665008 
z
" clip-path="url(#p6eb4a9cee0)" style="fill: #1f77b4"/>
   </g>
   <g id="patch_40">
    <path d="M 223.063518 16.684455 
L 226.16002 16.684455 
L 226.16002 11.665008 
L 223.063518 11.665008 
z
" clip-path="url(#p6eb4a9cee0)" style="fill: #bbbbbb"/>
   </g>
   <g id="patch_41">
    <path d="M 226.934145 16.684455 
L 230.030647 16.684455 
L 230.030647 11.067102 
L 226.934145 11.067102 
z
" clip-path="url(#p6eb4a9cee0)" style="fill: #b7b7b7"/>
   </g>
   <g id="patch_42">
    <path d="M 230.804772 16.684455 
L 233.901274 16.684455 
L 233.901274 7.465909 
L 230.804772 7.465909 
z
" clip-path="url(#p6eb4a9cee0)" style="fill: #b2b2b2"/>
   </g>
   <g id="matplotlib.axis_1"/>
   <g id="matplotlib.axis_2">
    <g id="ytick_1">
     <g id="line2d_1">
      <defs>
       <path id="m4cb2b61ae9" d="M 0 0 
L -3.5 0 
" style="stroke: #000000; stroke-width: 0.8"/>
      </defs>
      <g>
       <use xlink:href="#m4cb2b61ae9" x="28.951563" y="43.40678" style="stroke: #000000; stroke-width: 0.8"/>
      </g>
     </g>
     <g id="text_1">
      <!-- −20 -->
      <g transform="translate(0.846875 47.205998) scale(0.1 -0.1)">
       <defs>
        <path id="DejaVuSans-2212" d="M 678 2272 
L 4684 2272 
L 4684 1741 
L 678 1741 
L 678 2272 
z
" transform="scale(0.015625)"/>
        <path id="DejaVuSans-32" d="M 1228 531 
L 3431 531 
L 3431 0 
L 469 0 
L 469 531 
Q 828 903 1448 1529 
Q 2069 2156 2228 2338 
Q 2531 2678 2651 2914 
Q 2772 3150 2772 3378 
Q 2772 3750 2511 3984 
Q 2250 4219 1831 4219 
Q 1534 4219 1204 4116 
Q 875 4013 500 3803 
L 500 4441 
Q 881 4594 1212 4672 
Q 1544 4750 1819 4750 
Q 2544 4750 2975 4387 
Q 3406 4025 3406 3419 
Q 3406 3131 3298 2873 
Q 3191 2616 2906 2266 
Q 2828 2175 2409 1742 
Q 1991 1309 1228 531 
z
" transform="scale(0.015625)"/>
        <path id="DejaVuSans-30" d="M 2034 4250 
Q 1547 4250 1301 3770 
Q 1056 3291 1056 2328 
Q 1056 1369 1301 889 
Q 1547 409 2034 409 
Q 2525 409 2770 889 
Q 3016 1369 3016 2328 
Q 3016 3291 2770 3770 
Q 2525 4250 2034 4250 
z
M 2034 4750 
Q 2819 4750 3233 4129 
Q 3647 3509 3647 2328 
Q 3647 1150 3233 529 
Q 2819 -91 2034 -91 
Q 1250 -91 836 529 
Q 422 1150 422 2328 
Q 422 3509 836 4129 
Q 1250 4750 2034 4750 
z
" transform="scale(0.015625)"/>
       </defs>
       <use xlink:href="#DejaVuSans-2212"/>
       <use xlink:href="#DejaVuSans-32" x="83.789062"/>
       <use xlink:href="#DejaVuSans-30" x="147.412109"/>
      </g>
     </g>
    </g>
    <g id="ytick_2">
     <g id="line2d_2">
      <g>
       <use xlink:href="#m4cb2b61ae9" x="28.951563" y="16.684455" style="stroke: #000000; stroke-width: 0.8"/>
      </g>
     </g>
     <g id="text_2">
      <!-- 0 -->
      <g transform="translate(15.589063 20.483674) scale(0.1 -0.1)">
       <use xlink:href="#DejaVuSans-30"/>
      </g>
     </g>
    </g>
    <g id="text_3">
     <!-- Log(ace/glc) -->
     <g transform="translate(-5.232813 67.845313) rotate(-90) scale(0.1 -0.1)">
      <defs>
       <path id="DejaVuSans-4c" d="M 628 4666 
L 1259 4666 
L 1259 531 
L 3531 531 
L 3531 0 
L 628 0 
L 628 4666 
z
" transform="scale(0.015625)"/>
       <path id="DejaVuSans-6f" d="M 1959 3097 
Q 1497 3097 1228 2736 
Q 959 2375 959 1747 
Q 959 1119 1226 758 
Q 1494 397 1959 397 
Q 2419 397 2687 759 
Q 2956 1122 2956 1747 
Q 2956 2369 2687 2733 
Q 2419 3097 1959 3097 
z
M 1959 3584 
Q 2709 3584 3137 3096 
Q 3566 2609 3566 1747 
Q 3566 888 3137 398 
Q 2709 -91 1959 -91 
Q 1206 -91 779 398 
Q 353 888 353 1747 
Q 353 2609 779 3096 
Q 1206 3584 1959 3584 
z
" transform="scale(0.015625)"/>
       <path id="DejaVuSans-67" d="M 2906 1791 
Q 2906 2416 2648 2759 
Q 2391 3103 1925 3103 
Q 1463 3103 1205 2759 
Q 947 2416 947 1791 
Q 947 1169 1205 825 
Q 1463 481 1925 481 
Q 2391 481 2648 825 
Q 2906 1169 2906 1791 
z
M 3481 434 
Q 3481 -459 3084 -895 
Q 2688 -1331 1869 -1331 
Q 1566 -1331 1297 -1286 
Q 1028 -1241 775 -1147 
L 775 -588 
Q 1028 -725 1275 -790 
Q 1522 -856 1778 -856 
Q 2344 -856 2625 -561 
Q 2906 -266 2906 331 
L 2906 616 
Q 2728 306 2450 153 
Q 2172 0 1784 0 
Q 1141 0 747 490 
Q 353 981 353 1791 
Q 353 2603 747 3093 
Q 1141 3584 1784 3584 
Q 2172 3584 2450 3431 
Q 2728 3278 2906 2969 
L 2906 3500 
L 3481 3500 
L 3481 434 
z
" transform="scale(0.015625)"/>
       <path id="DejaVuSans-28" d="M 1984 4856 
Q 1566 4138 1362 3434 
Q 1159 2731 1159 2009 
Q 1159 1288 1364 580 
Q 1569 -128 1984 -844 
L 1484 -844 
Q 1016 -109 783 600 
Q 550 1309 550 2009 
Q 550 2706 781 3412 
Q 1013 4119 1484 4856 
L 1984 4856 
z
" transform="scale(0.015625)"/>
       <path id="DejaVuSans-61" d="M 2194 1759 
Q 1497 1759 1228 1600 
Q 959 1441 959 1056 
Q 959 750 1161 570 
Q 1363 391 1709 391 
Q 2188 391 2477 730 
Q 2766 1069 2766 1631 
L 2766 1759 
L 2194 1759 
z
M 3341 1997 
L 3341 0 
L 2766 0 
L 2766 531 
Q 2569 213 2275 61 
Q 1981 -91 1556 -91 
Q 1019 -91 701 211 
Q 384 513 384 1019 
Q 384 1609 779 1909 
Q 1175 2209 1959 2209 
L 2766 2209 
L 2766 2266 
Q 2766 2663 2505 2880 
Q 2244 3097 1772 3097 
Q 1472 3097 1187 3025 
Q 903 2953 641 2809 
L 641 3341 
Q 956 3463 1253 3523 
Q 1550 3584 1831 3584 
Q 2591 3584 2966 3190 
Q 3341 2797 3341 1997 
z
" transform="scale(0.015625)"/>
       <path id="DejaVuSans-63" d="M 3122 3366 
L 3122 2828 
Q 2878 2963 2633 3030 
Q 2388 3097 2138 3097 
Q 1578 3097 1268 2742 
Q 959 2388 959 1747 
Q 959 1106 1268 751 
Q 1578 397 2138 397 
Q 2388 397 2633 464 
Q 2878 531 3122 666 
L 3122 134 
Q 2881 22 2623 -34 
Q 2366 -91 2075 -91 
Q 1284 -91 818 406 
Q 353 903 353 1747 
Q 353 2603 823 3093 
Q 1294 3584 2113 3584 
Q 2378 3584 2631 3529 
Q 2884 3475 3122 3366 
z
" transform="scale(0.015625)"/>
       <path id="DejaVuSans-65" d="M 3597 1894 
L 3597 1613 
L 953 1613 
Q 991 1019 1311 708 
Q 1631 397 2203 397 
Q 2534 397 2845 478 
Q 3156 559 3463 722 
L 3463 178 
Q 3153 47 2828 -22 
Q 2503 -91 2169 -91 
Q 1331 -91 842 396 
Q 353 884 353 1716 
Q 353 2575 817 3079 
Q 1281 3584 2069 3584 
Q 2775 3584 3186 3129 
Q 3597 2675 3597 1894 
z
M 3022 2063 
Q 3016 2534 2758 2815 
Q 2500 3097 2075 3097 
Q 1594 3097 1305 2825 
Q 1016 2553 972 2059 
L 3022 2063 
z
" transform="scale(0.015625)"/>
       <path id="DejaVuSans-2f" d="M 1625 4666 
L 2156 4666 
L 531 -594 
L 0 -594 
L 1625 4666 
z
" transform="scale(0.015625)"/>
       <path id="DejaVuSans-6c" d="M 603 4863 
L 1178 4863 
L 1178 0 
L 603 0 
L 603 4863 
z
" transform="scale(0.015625)"/>
       <path id="DejaVuSans-29" d="M 513 4856 
L 1013 4856 
Q 1481 4119 1714 3412 
Q 1947 2706 1947 2009 
Q 1947 1309 1714 600 
Q 1481 -109 1013 -844 
L 513 -844 
Q 928 -128 1133 580 
Q 1338 1288 1338 2009 
Q 1338 2731 1133 3434 
Q 928 4138 513 4856 
z
" transform="scale(0.015625)"/>
      </defs>
      <use xlink:href="#DejaVuSans-4c"/>
      <use xlink:href="#DejaVuSans-6f" x="53.962891"/>
      <use xlink:href="#DejaVuSans-67" x="115.144531"/>
      <use xlink:href="#DejaVuSans-28" x="178.621094"/>
      <use xlink:href="#DejaVuSans-61" x="217.634766"/>
      <use xlink:href="#DejaVuSans-63" x="278.914062"/>
      <use xlink:href="#DejaVuSans-65" x="333.894531"/>
      <use xlink:href="#DejaVuSans-2f" x="395.417969"/>
      <use xlink:href="#DejaVuSans-67" x="429.109375"/>
      <use xlink:href="#DejaVuSans-6c" x="492.585938"/>
      <use xlink:href="#DejaVuSans-63" x="520.369141"/>
      <use xlink:href="#DejaVuSans-29" x="575.349609"/>
     </g>
    </g>
   </g>
   <g id="LineCollection_1">
    <path d="M 38.821662 16.684455 
L 236.223651 16.684455 
" clip-path="url(#p6eb4a9cee0)" style="fill: none; stroke: #333333"/>
   </g>
   <g id="patch_43">
    <path d="M 28.951563 69.75 
L 28.951563 4.5 
" style="fill: none; stroke: #000000; stroke-width: 0.8; stroke-linejoin: miter; stroke-linecap: square"/>
   </g>
   <g id="text_4">
    <!-- Model -->
    <g style="fill: #333333" transform="translate(105.091552 14.604767) scale(0.1 -0.1)">
     <defs>
      <path id="DejaVuSans-4d" d="M 628 4666 
L 1569 4666 
L 2759 1491 
L 3956 4666 
L 4897 4666 
L 4897 0 
L 4281 0 
L 4281 4097 
L 3078 897 
L 2444 897 
L 1241 4097 
L 1241 0 
L 628 0 
L 628 4666 
z
" transform="scale(0.015625)"/>
      <path id="DejaVuSans-64" d="M 2906 2969 
L 2906 4863 
L 3481 4863 
L 3481 0 
L 2906 0 
L 2906 525 
Q 2725 213 2448 61 
Q 2172 -91 1784 -91 
Q 1150 -91 751 415 
Q 353 922 353 1747 
Q 353 2572 751 3078 
Q 1150 3584 1784 3584 
Q 2172 3584 2448 3432 
Q 2725 3281 2906 2969 
z
M 947 1747 
Q 947 1113 1208 752 
Q 1469 391 1925 391 
Q 2381 391 2643 752 
Q 2906 1113 2906 1747 
Q 2906 2381 2643 2742 
Q 2381 3103 1925 3103 
Q 1469 3103 1208 2742 
Q 947 2381 947 1747 
z
" transform="scale(0.015625)"/>
     </defs>
     <use xlink:href="#DejaVuSans-4d"/>
     <use xlink:href="#DejaVuSans-6f" x="86.279297"/>
     <use xlink:href="#DejaVuSans-64" x="147.460938"/>
     <use xlink:href="#DejaVuSans-65" x="210.9375"/>
     <use xlink:href="#DejaVuSans-6c" x="272.460938"/>
    </g>
   </g>
  </g>
  <g id="axes_2">
   <g id="patch_44">
    <path d="M 28.951563 139.5 
L 246.09375 139.5 
L 246.09375 74.25 
L 28.951563 74.25 
z
" style="fill: #ffffff"/>
   </g>
   <g id="patch_45">
    <path d="M 41.144038 104.925498 
L 44.24054 104.925498 
L 44.24054 136.534091 
L 41.144038 136.534091 
z
" clip-path="url(#p5542865502)" style="fill: #b2b2b2"/>
   </g>
   <g id="patch_46">
    <path d="M 45.014665 104.925498 
L 48.111167 104.925498 
L 48.111167 122.322216 
L 45.014665 122.322216 
z
" clip-path="url(#p5542865502)" style="fill: #b7b7b7"/>
   </g>
   <g id="patch_47">
    <path d="M 48.885293 104.925498 
L 51.981795 104.925498 
L 51.981795 119.14483 
L 48.885293 119.14483 
z
" clip-path="url(#p5542865502)" style="fill: #bbbbbb"/>
   </g>
   <g id="patch_48">
    <path d="M 52.75592 104.925498 
L 55.852422 104.925498 
L 55.852422 118.51241 
L 52.75592 118.51241 
z
" clip-path="url(#p5542865502)" style="fill: #bfbfbf"/>
   </g>
   <g id="patch_49">
    <path d="M 56.626547 104.925498 
L 59.723049 104.925498 
L 59.723049 116.303373 
L 56.626547 116.303373 
z
" clip-path="url(#p5542865502)" style="fill: #c3c3c3"/>
   </g>
   <g id="patch_50">
    <path d="M 60.497174 104.925498 
L 63.593676 104.925498 
L 63.593676 116.247745 
L 60.497174 116.247745 
z
" clip-path="url(#p5542865502)" style="fill: #c7c7c7"/>
   </g>
   <g id="patch_51">
    <path d="M 64.367802 104.925498 
L 67.464303 104.925498 
L 67.464303 116.247745 
L 64.367802 116.247745 
z
" clip-path="url(#p5542865502)" style="fill: #cbcbcb"/>
   </g>
   <g id="patch_52">
    <path d="M 68.238429 104.925498 
L 71.334931 104.925498 
L 71.334931 116.241369 
L 68.238429 116.241369 
z
" clip-path="url(#p5542865502)" style="fill: #cfcfcf"/>
   </g>
   <g id="patch_53">
    <path d="M 72.109056 104.925498 
L 75.205558 104.925498 
L 75.205558 116.013158 
L 72.109056 116.013158 
z
" clip-path="url(#p5542865502)" style="fill: #d3d3d3"/>
   </g>
   <g id="patch_54">
    <path d="M 75.979683 104.925498 
L 79.076185 104.925498 
L 79.076185 115.978721 
L 75.979683 115.978721 
z
" clip-path="url(#p5542865502)" style="fill: #d7d7d7"/>
   </g>
   <g id="patch_55">
    <path d="M 79.850311 104.925498 
L 82.946812 104.925498 
L 82.946812 115.205287 
L 79.850311 115.205287 
z
" clip-path="url(#p5542865502)" style="fill: #dbdbdb"/>
   </g>
   <g id="patch_56">
    <path d="M 83.720938 104.925498 
L 86.81744 104.925498 
L 86.81744 114.745385 
L 83.720938 114.745385 
z
" clip-path="url(#p5542865502)" style="fill: #dfdfdf"/>
   </g>
   <g id="patch_57">
    <path d="M 87.591565 104.925498 
L 90.688067 104.925498 
L 90.688067 114.745385 
L 87.591565 114.745385 
z
" clip-path="url(#p5542865502)" style="fill: #e3e3e3"/>
   </g>
   <g id="patch_58">
    <path d="M 91.462192 104.925498 
L 94.558694 104.925498 
L 94.558694 114.61988 
L 91.462192 114.61988 
z
" clip-path="url(#p5542865502)" style="fill: #e7e7e7"/>
   </g>
   <g id="patch_59">
    <path d="M 95.332819 104.925498 
L 98.429321 104.925498 
L 98.429321 113.872368 
L 95.332819 113.872368 
z
" clip-path="url(#p5542865502)" style="fill: #ebebeb"/>
   </g>
   <g id="patch_60">
    <path d="M 99.203447 104.925498 
L 102.299948 104.925498 
L 102.299948 113.732598 
L 99.203447 113.732598 
z
" clip-path="url(#p5542865502)" style="fill: #efefef"/>
   </g>
   <g id="patch_61">
    <path d="M 103.074074 104.925498 
L 106.170576 104.925498 
L 106.170576 113.710373 
L 103.074074 113.710373 
z
" clip-path="url(#p5542865502)" style="fill: #f3f3f3"/>
   </g>
   <g id="patch_62">
    <path d="M 106.944701 104.925498 
L 110.041203 104.925498 
L 110.041203 113.710373 
L 106.944701 113.710373 
z
" clip-path="url(#p5542865502)" style="fill: #f7f7f7"/>
   </g>
   <g id="patch_63">
    <path d="M 110.815328 104.925498 
L 113.91183 104.925498 
L 113.91183 113.710373 
L 110.815328 113.710373 
z
" clip-path="url(#p5542865502)" style="fill: #fbfbfb"/>
   </g>
   <g id="patch_64">
    <path d="M 114.685956 104.925498 
L 117.782457 104.925498 
L 117.782457 113.610965 
L 114.685956 113.610965 
z
" clip-path="url(#p5542865502)" style="fill: #ffffff"/>
   </g>
   <g id="patch_65">
    <path d="M 157.262855 104.925498 
L 160.359357 104.925498 
L 160.359357 101.583193 
L 157.262855 101.583193 
z
" clip-path="url(#p5542865502)" style="fill: #ffffff"/>
   </g>
   <g id="patch_66">
    <path d="M 161.133482 104.925498 
L 164.229984 104.925498 
L 164.229984 101.07726 
L 161.133482 101.07726 
z
" clip-path="url(#p5542865502)" style="fill: #fbfbfb"/>
   </g>
   <g id="patch_67">
    <path d="M 165.00411 104.925498 
L 168.100611 104.925498 
L 168.100611 100.940693 
L 165.00411 100.940693 
z
" clip-path="url(#p5542865502)" style="fill: #f7f7f7"/>
   </g>
   <g id="patch_68">
    <path d="M 168.874737 104.925498 
L 171.971239 104.925498 
L 171.971239 100.940127 
L 168.874737 100.940127 
z
" clip-path="url(#p5542865502)" style="fill: #f3f3f3"/>
   </g>
   <g id="patch_69">
    <path d="M 172.745364 104.925498 
L 175.841866 104.925498 
L 175.841866 100.400467 
L 172.745364 100.400467 
z
" clip-path="url(#p5542865502)" style="fill: #efefef"/>
   </g>
   <g id="patch_70">
    <path d="M 176.615991 104.925498 
L 179.712493 104.925498 
L 179.712493 100.315979 
L 176.615991 100.315979 
z
" clip-path="url(#p5542865502)" style="fill: #ebebeb"/>
   </g>
   <g id="patch_71">
    <path d="M 180.486618 104.925498 
L 183.58312 104.925498 
L 183.58312 99.795454 
L 180.486618 99.795454 
z
" clip-path="url(#p5542865502)" style="fill: #e7e7e7"/>
   </g>
   <g id="patch_72">
    <path d="M 184.357246 104.925498 
L 187.453747 104.925498 
L 187.453747 99.446862 
L 184.357246 99.446862 
z
" clip-path="url(#p5542865502)" style="fill: #e3e3e3"/>
   </g>
   <g id="patch_73">
    <path d="M 188.227873 104.925498 
L 191.324375 104.925498 
L 191.324375 98.690834 
L 188.227873 98.690834 
z
" clip-path="url(#p5542865502)" style="fill: #dfdfdf"/>
   </g>
   <g id="patch_74">
    <path d="M 192.0985 104.925498 
L 195.195002 104.925498 
L 195.195002 98.092981 
L 192.0985 98.092981 
z
" clip-path="url(#p5542865502)" style="fill: #dbdbdb"/>
   </g>
   <g id="patch_75">
    <path d="M 195.969127 104.925498 
L 199.065629 104.925498 
L 199.065629 97.20801 
L 195.969127 97.20801 
z
" clip-path="url(#p5542865502)" style="fill: #d7d7d7"/>
   </g>
   <g id="patch_76">
    <path d="M 199.839755 104.925498 
L 202.936256 104.925498 
L 202.936256 96.766329 
L 199.839755 96.766329 
z
" clip-path="url(#p5542865502)" style="fill: #d3d3d3"/>
   </g>
   <g id="patch_77">
    <path d="M 203.710382 104.925498 
L 206.806884 104.925498 
L 206.806884 94.077319 
L 203.710382 94.077319 
z
" clip-path="url(#p5542865502)" style="fill: #cfcfcf"/>
   </g>
   <g id="patch_78">
    <path d="M 207.581009 104.925498 
L 210.677511 104.925498 
L 210.677511 93.527637 
L 207.581009 93.527637 
z
" clip-path="url(#p5542865502)" style="fill: #cbcbcb"/>
   </g>
   <g id="patch_79">
    <path d="M 211.451636 104.925498 
L 214.548138 104.925498 
L 214.548138 84.560943 
L 211.451636 84.560943 
z
" clip-path="url(#p5542865502)" style="fill: #c7c7c7"/>
   </g>
   <g id="patch_80">
    <path d="M 215.322264 104.925498 
L 218.418765 104.925498 
L 218.418765 84.447948 
L 215.322264 84.447948 
z
" clip-path="url(#p5542865502)" style="fill: #1f77b4"/>
   </g>
   <g id="patch_81">
    <path d="M 219.192891 104.925498 
L 222.289393 104.925498 
L 222.289393 84.447948 
L 219.192891 84.447948 
z
" clip-path="url(#p5542865502)" style="fill: #1f77b4"/>
   </g>
   <g id="patch_82">
    <path d="M 223.063518 104.925498 
L 226.16002 104.925498 
L 226.16002 81.195371 
L 223.063518 81.195371 
z
" clip-path="url(#p5542865502)" style="fill: #1f77b4"/>
   </g>
   <g id="patch_83">
    <path d="M 226.934145 104.925498 
L 230.030647 104.925498 
L 230.030647 80.583795 
L 226.934145 80.583795 
z
" clip-path="url(#p5542865502)" style="fill: #1f77b4"/>
   </g>
   <g id="patch_84">
    <path d="M 230.804772 104.925498 
L 233.901274 104.925498 
L 233.901274 77.215909 
L 230.804772 77.215909 
z
" clip-path="url(#p5542865502)" style="fill: #1f77b4"/>
   </g>
   <g id="matplotlib.axis_3"/>
   <g id="matplotlib.axis_4">
    <g id="ytick_3">
     <g id="line2d_3">
      <g>
       <use xlink:href="#m4cb2b61ae9" x="28.951563" y="127.317248" style="stroke: #000000; stroke-width: 0.8"/>
      </g>
     </g>
     <g id="text_5">
      <!-- −2.5 -->
      <g transform="translate(-2.33125 131.116467) scale(0.1 -0.1)">
       <defs>
        <path id="DejaVuSans-2e" d="M 684 794 
L 1344 794 
L 1344 0 
L 684 0 
L 684 794 
z
" transform="scale(0.015625)"/>
        <path id="DejaVuSans-35" d="M 691 4666 
L 3169 4666 
L 3169 4134 
L 1269 4134 
L 1269 2991 
Q 1406 3038 1543 3061 
Q 1681 3084 1819 3084 
Q 2600 3084 3056 2656 
Q 3513 2228 3513 1497 
Q 3513 744 3044 326 
Q 2575 -91 1722 -91 
Q 1428 -91 1123 -41 
Q 819 9 494 109 
L 494 744 
Q 775 591 1075 516 
Q 1375 441 1709 441 
Q 2250 441 2565 725 
Q 2881 1009 2881 1497 
Q 2881 1984 2565 2268 
Q 2250 2553 1709 2553 
Q 1456 2553 1204 2497 
Q 953 2441 691 2322 
L 691 4666 
z
" transform="scale(0.015625)"/>
       </defs>
       <use xlink:href="#DejaVuSans-2212"/>
       <use xlink:href="#DejaVuSans-32" x="83.789062"/>
       <use xlink:href="#DejaVuSans-2e" x="147.412109"/>
       <use xlink:href="#DejaVuSans-35" x="179.199219"/>
      </g>
     </g>
    </g>
    <g id="ytick_4">
     <g id="line2d_4">
      <g>
       <use xlink:href="#m4cb2b61ae9" x="28.951563" y="104.925498" style="stroke: #000000; stroke-width: 0.8"/>
      </g>
     </g>
     <g id="text_6">
      <!-- 0.0 -->
      <g transform="translate(6.048438 108.724717) scale(0.1 -0.1)">
       <use xlink:href="#DejaVuSans-30"/>
       <use xlink:href="#DejaVuSans-2e" x="63.623047"/>
       <use xlink:href="#DejaVuSans-30" x="95.410156"/>
      </g>
     </g>
    </g>
    <g id="ytick_5">
     <g id="line2d_5">
      <g>
       <use xlink:href="#m4cb2b61ae9" x="28.951563" y="82.533748" style="stroke: #000000; stroke-width: 0.8"/>
      </g>
     </g>
     <g id="text_7">
      <!-- 2.5 -->
      <g transform="translate(6.048438 86.332967) scale(0.1 -0.1)">
       <use xlink:href="#DejaVuSans-32"/>
       <use xlink:href="#DejaVuSans-2e" x="63.623047"/>
       <use xlink:href="#DejaVuSans-35" x="95.410156"/>
      </g>
     </g>
    </g>
    <g id="text_8">
     <!-- Log(ace/glc) -->
     <g transform="translate(-8.410938 137.595312) rotate(-90) scale(0.1 -0.1)">
      <use xlink:href="#DejaVuSans-4c"/>
      <use xlink:href="#DejaVuSans-6f" x="53.962891"/>
      <use xlink:href="#DejaVuSans-67" x="115.144531"/>
      <use xlink:href="#DejaVuSans-28" x="178.621094"/>
      <use xlink:href="#DejaVuSans-61" x="217.634766"/>
      <use xlink:href="#DejaVuSans-63" x="278.914062"/>
      <use xlink:href="#DejaVuSans-65" x="333.894531"/>
      <use xlink:href="#DejaVuSans-2f" x="395.417969"/>
      <use xlink:href="#DejaVuSans-67" x="429.109375"/>
      <use xlink:href="#DejaVuSans-6c" x="492.585938"/>
      <use xlink:href="#DejaVuSans-63" x="520.369141"/>
      <use xlink:href="#DejaVuSans-29" x="575.349609"/>
     </g>
    </g>
   </g>
   <g id="LineCollection_2">
    <path d="M 38.821662 104.925498 
L 236.223651 104.925498 
" clip-path="url(#p5542865502)" style="fill: none; stroke: #333333"/>
   </g>
   <g id="patch_85">
    <path d="M 28.951563 139.5 
L 28.951563 74.25 
" style="fill: none; stroke: #000000; stroke-width: 0.8; stroke-linejoin: miter; stroke-linecap: square"/>
   </g>
   <g id="text_9">
    <!-- Data -->
    <g style="fill: #333333" transform="translate(127.519689 102.845811) scale(0.1 -0.1)">
     <defs>
      <path id="DejaVuSans-44" d="M 1259 4147 
L 1259 519 
L 2022 519 
Q 2988 519 3436 956 
Q 3884 1394 3884 2338 
Q 3884 3275 3436 3711 
Q 2988 4147 2022 4147 
L 1259 4147 
z
M 628 4666 
L 1925 4666 
Q 3281 4666 3915 4102 
Q 4550 3538 4550 2338 
Q 4550 1131 3912 565 
Q 3275 0 1925 0 
L 628 0 
L 628 4666 
z
" transform="scale(0.015625)"/>
      <path id="DejaVuSans-74" d="M 1172 4494 
L 1172 3500 
L 2356 3500 
L 2356 3053 
L 1172 3053 
L 1172 1153 
Q 1172 725 1289 603 
Q 1406 481 1766 481 
L 2356 481 
L 2356 0 
L 1766 0 
Q 1100 0 847 248 
Q 594 497 594 1153 
L 594 3053 
L 172 3053 
L 172 3500 
L 594 3500 
L 594 4494 
L 1172 4494 
z
" transform="scale(0.015625)"/>
     </defs>
     <use xlink:href="#DejaVuSans-44"/>
     <use xlink:href="#DejaVuSans-61" x="77.001953"/>
     <use xlink:href="#DejaVuSans-74" x="138.28125"/>
     <use xlink:href="#DejaVuSans-61" x="177.490234"/>
    </g>
   </g>
  </g>
 </g>
 <defs>
  <clipPath id="p6eb4a9cee0">
   <rect x="28.951563" y="4.5" width="217.142188" height="65.25"/>
  </clipPath>
  <clipPath id="p5542865502">
   <rect x="28.951563" y="74.25" width="217.142188" height="65.25"/>
  </clipPath>
 </defs>
</svg>
